<?xml version="1.0" encoding="utf-8"?>
<!-- Generator: Adobe Illustrator 27.6.1, SVG Export Plug-In . SVG Version: 6.00 Build 0)  -->
<svg version="1.1" id="Capa_1" xmlns="http://www.w3.org/2000/svg" xmlns:xlink="http://www.w3.org/1999/xlink" x="0px" y="0px"
	 viewBox="0 0 1000 1000" style="enable-background:new 0 0 1000 1000;" xml:space="preserve">
<style type="text/css">
	.st0{fill:#524280;}
</style>
<g>
	<g>
		<path class="st0" d="M945.26,261.59c0,164.41,0,328.82,0,493.23c-3.78,18.85-7.8,37.57-14.74,55.65
			c-31,80.72-113.9,139.44-200.08,139.7c-151.13,0.46-302.25,0.1-453.38,0.18c-13.6,0.01-26.93-1.87-40.12-4.7
			C133.8,923.53,60.63,830.37,61.36,726.27c1.02-145.37,0.25-290.76,0.27-436.14c0-10.91,0.05-21.8,1.82-32.64
			c12.69-77.89,54.38-134.47,124.7-170.05c21.76-11.01,45.23-16.38,69.01-20.72c164.41,0,328.82,0,493.23,0
			c3.63,0.81,7.25,1.72,10.9,2.4c75.57,14.25,129.92,56.32,163.97,125.03C935.82,215.47,940.97,238.4,945.26,261.59z M136.98,507.33
			c0,72.13-0.01,144.27,0.01,216.4c0,8.33,0.35,16.59,1.44,24.91c9.22,70.69,70.7,126.07,141.83,126.23
			c148.86,0.34,297.73,0.09,446.59,0.16c8.39,0,16.64-1.01,24.79-2.63c70.24-13.99,118.78-72.86,118.86-144.76
			c0.16-146.28,0.04-292.55,0.06-438.83c0-7.19-0.61-14.3-1.52-21.45c-8.82-69.83-70.78-125.63-141.32-125.79
			c-149.15-0.35-298.3-0.09-447.45-0.16c-8.39,0-16.63,1.07-24.78,2.72C185.56,158.31,137.23,217,137.04,288.35
			C136.84,361.34,136.99,434.34,136.98,507.33z"/>
		<path class="st0" d="M725.16,508.21c-0.01,122.73-98.68,221.39-221.41,221.39c-122.73-0.01-221.37-98.67-221.37-221.42
			c0-122.77,98.61-221.37,221.4-221.36C626.53,286.82,725.17,385.46,725.16,508.21z M504.22,362.18
			c-80.65-0.1-146.31,65.06-146.48,145.36c-0.17,80.68,64.94,146.49,145.14,146.69c81.14,0.2,146.84-65.01,146.91-145.79
			C649.86,427.87,584.57,362.28,504.22,362.18z"/>
		<path class="st0" d="M799.11,269.35c-0.15,30.5-25.84,55.94-56.25,55.71c-30.96-0.24-55.67-24.93-55.94-55.88
			c-0.27-30.74,25.8-56.69,56.52-56.28C773.97,213.3,799.26,238.95,799.11,269.35z"/>
	</g>
</g>
</svg>
