<?xml version="1.0" encoding="UTF-8"?>
<svg id="Capa_1" data-name="Capa 1" xmlns="http://www.w3.org/2000/svg" viewBox="0 0 119.13 144.97">
  <defs>
    <style>
      .cls-1 {
        fill: #524280;
      }
    </style>
  </defs>
  <path class="cls-1" d="m8.79,137.59l4.66,6.34c1.03,1.4,3.12,1.4,4.15,0l4.66-6.34c1.03-1.4,3.12-1.4,4.15,0l4.65,6.33c1.03,1.4,3.12,1.4,4.15,0l4.65-6.33c1.03-1.4,3.12-1.4,4.15,0l4.66,6.33c1.03,1.4,3.12,1.4,4.15,0l4.65-6.33c1.03-1.4,3.12-1.4,4.15,0l4.66,6.33c1.03,1.4,3.12,1.4,4.15,0l4.66-6.34c1.03-1.4,3.12-1.4,4.15,0l4.66,6.34c1.03,1.4,3.12,1.4,4.15,0l4.66-6.34c1.03-1.4,3.12-1.4,4.15,0l4.66,6.34c1.03,1.4,3.12,1.4,4.15,0l4.66-6.34c1.03-1.4,3.12-1.4,4.15,0l.06.08c1.47,2,4.65.96,4.65-1.52V2.57c0-1.42-1.15-2.57-2.57-2.57H2.57C1.15,0,0,1.15,0,2.57v133.49c0,2.49,3.17,3.53,4.65,1.52h0c1.03-1.4,3.12-1.4,4.15,0Z"/>
</svg>